<?xml version="1.0" encoding="UTF-8" standalone="no"?>
<!-- Created with Inkscape (http://www.inkscape.org/) -->

<svg
   xmlns:dc="http://purl.org/dc/elements/1.1/"
   xmlns:cc="http://creativecommons.org/ns#"
   xmlns:rdf="http://www.w3.org/1999/02/22-rdf-syntax-ns#"
   xmlns:svg="http://www.w3.org/2000/svg"
   xmlns="http://www.w3.org/2000/svg"
   xmlns:sodipodi="http://sodipodi.sourceforge.net/DTD/sodipodi-0.dtd"
   xmlns:inkscape="http://www.inkscape.org/namespaces/inkscape"
   version="1.1"
   id="svg814"
   width="322.67474"
   height="322.67474"
   viewBox="0 0 284.44449 322.67475"
   sodipodi:docname="Monkey.svg"
   inkscape:version="0.92.4 (5da689c313, 2019-01-14)">
  <metadata
     id="metadata820">
    <rdf:RDF>
      <cc:Work
         rdf:about="">
        <dc:format>image/svg+xml</dc:format>
        <dc:type
           rdf:resource="http://purl.org/dc/dcmitype/StillImage" />
        <dc:title />
      </cc:Work>
    </rdf:RDF>
  </metadata>
  <defs
     id="defs818" />
  <sodipodi:namedview
     pagecolor="#ffffff"
     bordercolor="#666666"
     borderopacity="1"
     objecttolerance="10"
     gridtolerance="10"
     guidetolerance="10"
     inkscape:pageopacity="0"
     inkscape:pageshadow="2"
     inkscape:window-width="1920"
     inkscape:window-height="1057"
     id="namedview816"
     showgrid="false"
     inkscape:zoom="1.4519531"
     inkscape:cx="124.29206"
     inkscape:cy="252.33088"
     inkscape:window-x="-8"
     inkscape:window-y="1192"
     inkscape:window-maximized="1"
     inkscape:current-layer="svg814" />
  <path
     inkscape:connector-curvature="0"
     id="path4699"
     d="m 96.507946,165.21441 -60.618584,-0.2435 -0.15522,-22.40996 h 96.323978 v -23.02753 l -40.622034,-0.0392 c 0,0 5.60082,-37.297962 0.36525,-38.374077 -2.83116,-0.526408 -9.04234,-0.869272 -13.32971,-3.46611 -6.23025,-3.773625 -9.36959,-9.522324 -9.0887,-14.246402 0.21251,-3.574135 1.28353,-7.852422 3.19659,-10.161176 1.63888,-1.638872 4.04735,-3.593777 4.51208,-5.92936 0.46245,-2.324096 -1.653,-5.330408 -2.06115,-8.111306 -1.3532,-9.219975 4.79048,-19.395746 12.54997,-21.858513 3.85268,-1.222792 4.57189,-0.515915 4.32917,-7.036847 l 1.98656,-7.4085626 96.587654,-0.2330473 1.73344,9.4161959 c -0.26756,6.956702 5.98087,4.644403 9.15792,7.126448 6.06824,4.740764 7.76563,7.045577 8.44229,16.490337 -0.82419,3.704088 -3.18415,9.284196 -2.49228,12.493059 0.49131,2.278671 3.78055,2.550717 4.61227,3.738163 8.51878,12.162259 1.0046,28.335328 -12.88963,29.523381 -4.62016,0.395055 -4.21922,-0.417774 -5.9027,-0.596223 l -0.12175,22.44356 3e-5,16.19049 -40.50901,0.0392 0.15863,23.02753 h 95.95051 v 22.65345 h -60.687 l 0.19587,125.64906 -23.05302,0.0476 v -44.4268 h -45.71428 l -0.0861,44.27679 -22.666244,0.13611 z M 190.67488,67.369882 94.298606,67.25857 l -0.50677,49.696 H 190.66764 Z M 106.50648,48.09713 c 9.255,-12.855459 5.49033,-16.583451 2.05509,-21.728197 -4.15094,-6.216615 -13.748314,-10.916647 -19.697454,-7.783733 -7.46393,3.930631 -13.22567,10.751229 -13.27292,19.016584 -0.0473,8.267681 8.69826,15.008537 17.33834,15.950085 5.25688,0.572865 10.556054,-1.25864 13.576944,-5.454739 z M 95.641976,36.942168 c 1.27038,-2.168326 3.2209,-1.349239 4.556234,0.655862 0.53536,2.779944 -0.710284,2.009425 -3.326054,2.009425 -2.43994,0 -2.41826,-0.637435 -1.23018,-2.665287 z m 109.268614,8.422283 c 5.17058,-7.382027 4.50253,-13.575166 -0.64437,-20.907653 -8.97017,-12.779278 -30.27941,-5.720999 -29.45106,11.217103 1.04028,21.271807 21.7828,21.558495 30.09543,9.69055 z"
     style="fill:#8c5f42;stroke-width:2.53968263"
     sodipodi:nodetypes="cccccccsscscsscccscsssccccccccccccccccccccssscssscssssss" />
  <path
     inkscape:connector-curvature="0"
     id="path4691"
     d="M 93.968296,167.75409 H 0 v -28.03691 h 23.10065 l 0.0182,-12.47625 12.497632,-0.0427 -0.0609,12.61936 H 129.52384 V 119.53343 H 91.428596 v -17.24189 l 0.36525,-21.1655 c -3.62669,0.45055 -7.17683,0.64592 -10.32192,-0.50885 -6.04966,-2.22122 -10.09295,-8.08309 -10.65174,-9.30314 -2.11156,-4.61032 -2.67978,-10.3638 0.56536,-16.90525 1.26685,-2.55368 4.55972,-4.852425 5.3157,-6.844447 0.83953,-2.212172 -1.30804,-5.305523 -1.86858,-7.071627 -2.31706,-7.300422 3.58511,-17.98052 10.41837,-22.196021 0.9241,-0.570087 6.13451,-2.675424 6.13451,-2.675424 l 0.0431,-15.6153846 H 193.01594 l 0.043,15.8632936 c 0,0 0.7778,0.04596 4.63048,1.268755 7.9671,2.528661 13.95228,12.342923 12.41504,21.815853 -0.48868,3.011316 -3.03294,6.658398 -2.41042,9.020944 0.58069,2.203778 4.29536,2.676588 5.89562,5.179478 2.27065,3.55142 3.66643,7.83946 3.66643,10.28998 0,7.07058 -8.86821,17.44119 -17.29129,18.4155 -2.99195,0.34608 -6.50223,-0.67336 -6.50223,-0.67336 l -0.44668,38.34709 h -38.09525 v 20.28416 h 93.70288 v -12.50671 h 12.98517 v 12.54942 l 22.83579,-0.0427 v 28.51413 H 191.0739 v 154.34301 h -14.60317 -13.93102 v -36.8254 -36.8254 h -20.31743 -20.31746 v 36.8254 36.8254 H 107.93656 93.968296 Z M 119.36509,294.73822 H 96.507946 v 25.03179 h 4.558504 l 0.0522,-9.0354 h 4.38023 l 0.12609,9.03541 h 4.5585 l -0.0396,-9.03541 h 4.41494 l 0.18321,9.03541 h 4.5585 z m 68.57143,0 h -22.85715 v 24.64369 h 4.61018 l -0.0325,-8.64731 h 4.36203 l 0.28069,8.64731 h 4.61017 l 0.12193,-8.64731 h 4.38994 l 0.0983,8.64731 h 4.61018 z m -68.57143,-26.93343 v -21.32053 h 22.85714 22.85714 v 21.30944 23.11737 l 23.05302,-0.0476 c 0,0 -0.19587,-20.48187 -0.19587,-63.63848 v -62.01058 h 60.687 v -22.65345 h -95.95051 l -0.15863,-23.02753 h -20.45626 v 23.02753 H 35.734142 l 0.15522,22.40996 60.618584,0.2435 v 61.79892 c 0,33.98943 0.10481,63.88383 0.10481,63.88383 L 119.279,290.76106 Z m -3.64157,-45.6296 -0.49482,-64.07649 53.20852,0.008 -0.52253,64.46291 z m -83.012018,-92.11709 -6.340132,-0.0205 -0.0901,12.22226 -23.35415,0.0974 v 4.55422 l 15.94369,0.0472 0.0369,4.49181 -15.98057,0.0153 v 4.702 h 16.10893 l 8e-5,4.23379 -16.10901,0.17264 v 4.55422 l 30.088792,0.0861 z M 281.90478,142.35726 H 259.0865 l -0.071,-12.14393 h -7.45606 l -0.13084,35.00108 h 30.4762 l 0.0508,-4.57143 -15.55937,0.0597 v -4.56179 l 15.50856,-0.0694 -10e-6,-4.57143 -15.50855,0.0244 v -4.48439 h 15.50849 z m -91.23741,-74.98151 -48.44514,0.0609 -47.931124,-0.17218 -0.50677,49.696 h 48.437894 48.4379 z m -82.98023,30.400165 c 17.76969,2.825005 21.90456,2.951825 34.26855,3.042395 13.58334,0.0995 24.59788,-1.653785 35.65389,-3.407645 2.28398,0.5347 -14.26171,7.894135 -35.63085,8.033735 -27.82287,0.18175 -35.72331,-7.864285 -34.29159,-7.668485 z M 129.76732,74.93392 c 0.0498,-2.12733 0.94097,-2.57866 2.42023,-2.57866 1.81809,0 2.53738,1.32548 2.53738,2.7223 0,1.39683 -1.11208,2.40766 -2.6114,2.3875 -1.19405,-0.0161 -2.36562,-0.43425 -2.34621,-2.53114 z M 91.428586,67.38217 c 0,-9.74728 -0.94836,-11.91511 -6.274,-14.34164 -4.79735,-2.18582 -7.18831,-2.09981 -10.15873,0.36542 -8.93302,7.41374 -1.50683,25.45924 10.47714,25.45924 5.36953,0 5.95559,-1.12997 5.95559,-11.48302 z m 119.225234,4.73476 c 3.44393,-4.37824 4.74634,-8.61499 3.70841,-12.06349 -2.63594,-8.75786 -5.31681,-10.06881 -13.586,-6.6436 -6.98306,2.89248 -7.76035,4.32828 -7.76035,14.3349 0,10.08003 0.57679,11.12045 6.16488,11.12045 3.64815,0 8.33187,-2.75488 11.47306,-6.74826 z m -19.8712,-17.19991 c 0,0 -6.15174,-0.9471 -7.96448,-1.97863 -14.94085,-8.501999 -14.94084,-25.993597 0,-34.495603 4.91633,-2.797611 7.68505,-2.348647 7.68505,-2.348647 L 190.47629,2.6747154 93.896146,2.9018664 93.882246,15.394 c 0,0 2.78482,-0.643852 7.285494,1.683537 17.75218,9.180018 14.91023,29.582435 0.97905,35.911583 -1.30788,0.5942 -7.562324,2.88741 -7.562324,2.88741 l -0.0135,7.85714 96.102304,-0.0627 z m -85.48558,-6.778462 c 3.42857,-3.428572 6.27682,-6.255877 6.23377,-12.103604 -0.0262,-3.559749 -2.34828,-8.88595 -6.11355,-12.396421 -3.48219,-3.246547 -8.070694,-5.166131 -11.362904,-5.166131 -3.5506,0 -8.57406,2.374082 -12.25875,6.15446 -3.42614,3.515112 -5.64817,8.321863 -5.64817,11.623319 0,2.993605 1.83539,7.303639 4.7647,10.481249 3.77559,4.09561 9.19768,6.73694 13.05613,6.73694 2.92063,0 7.900214,-1.90124 11.328774,-5.329812 z M 93.968266,36.960431 c 0,-2.095238 1.71429,-3.809524 3.80952,-3.809524 2.09524,0 3.809534,1.714286 3.809534,3.809524 0,2.095238 -1.714294,3.809524 -3.809534,3.809524 -2.09523,0 -3.80952,-1.714286 -3.80952,-3.809524 z M 201.56227,48.204673 c 15.8715,-12.484538 -0.61869,-37.431741 -18.43858,-27.894824 -10.36264,5.545914 -10.63342,24.728573 -0.16032,29.775941 4.07289,1.96288 6.69468,2.40199 9.31703,2.22209 2.73822,-0.18784 5.46537,-1.10115 9.28187,-4.103207 z"
     style="fill:#0f0c09;stroke-width:2.53968263"
     sodipodi:nodetypes="ccccccccccccsssscsccccscssssccccccccccccccccccccccccccccccccccccccccccccccccccccccccsccccccccccsccccccccccccccccccccccccccccccccccccccccccccccscsccssscssssssssssscssccccssccccsssssssssssssssssss" />
  <path
     style="fill:#0f0c09;stroke-width:2.53968263"
     d="m 149.90967,74.380175 c 0.5717,-2.979263 4.85755,-2.736432 5.20111,-0.09986 0,1.396826 -1.11208,2.955538 -2.6114,2.935373 -1.19405,-0.01606 -2.60912,-0.738622 -2.58971,-2.835516 z"
     id="path4832"
     inkscape:connector-curvature="0"
     sodipodi:nodetypes="ccscc" />
  <path
     style="fill:#0f0c09;stroke-width:2.53968263"
     d="m 183.85471,37.643292 c 0,-2.095238 1.71429,-3.809524 3.80952,-3.809524 2.09524,0 3.80953,1.714286 3.80953,3.809524 0,2.095238 -1.71429,3.809524 -3.80953,3.809524 -2.09523,0 -3.80952,-1.714286 -3.80952,-3.809524 z"
     id="path4822"
     inkscape:connector-curvature="0" />
  <rect
     style="opacity:1;fill:#fffffa;fill-opacity:1;fill-rule:nonzero;stroke:none;stroke-width:1.71292329;stroke-miterlimit:4;stroke-dasharray:none;stroke-opacity:1"
     id="rect4852"
     width="48.401894"
     height="60.384789"
     x="117.62864"
     y="160.00345" />
  <path
     style="fill:#ffffff;fill-opacity:1;stroke:none;stroke-width:0.06087549"
     d="m 96.516626,307.24813 v -12.50991 h 11.424234 11.42423 l -0.0405,8.77616 c -0.0223,4.82691 -0.0405,10.45637 -0.0405,12.50993 v 3.73374 h -2.25239 -2.2524 l -0.001,-0.16741 c -6.3e-4,-0.0921 -0.0412,-2.0302 -0.0901,-4.30694 -0.0489,-2.27675 -0.0895,-4.28335 -0.0902,-4.45914 l -0.001,-0.31959 h -2.22196 -2.22195 v 4.62653 4.62654 h -2.24458 -2.24458 l -0.0388,-3.08943 c -0.0213,-1.69919 -0.0557,-3.79518 -0.0764,-4.65776 -0.0369,-1.5353 -0.0404,-1.56887 -0.16691,-1.59423 -0.0711,-0.0142 -1.06745,-0.0396 -2.2142,-0.0564 l -2.08498,-0.0306 -2.5e-4,3.93804 c -1.3e-4,2.16593 -0.0181,4.28733 -0.0398,4.71422 l -0.0396,0.77617 h -2.242994 -2.243 z"
     id="path8561"
     inkscape:connector-curvature="0" />
  <path
     style="fill:#ffffff;fill-opacity:1;stroke:none;stroke-width:0.06087549"
     d="M 15.610303,165.131 C 9.031184,165.1092 3.490754,165.0873 3.298236,165.0824 l -0.350034,-0.009 v -2.24069 -2.2407 l 7.41159,-0.0741 c 4.076375,-0.0408 7.706075,-0.0734 8.066002,-0.0726 l 0.654411,0.002 v -2.16107 -2.16108 H 11.014203 2.948202 v -2.31305 -2.31304 l 7.989907,-0.0154 7.989907,-0.0154 -0.02272,-2.25239 c -0.0125,-1.23882 -0.02619,-2.25648 -0.03044,-2.26148 -0.0042,-0.005 -3.589475,-0.0293 -7.967184,-0.054 l -7.959469,-0.0449 v -2.23401 -2.234 l 7.771717,-0.0405 c 4.274444,-0.0223 9.52959,-0.0405 11.678102,-0.0405 h 3.906386 l 0.04043,-3.93651 c 0.02224,-2.16507 0.04043,-4.91817 0.04043,-6.11797 v -2.18148 h 3.165526 3.165525 l -2.44e-4,1.62842 c -1.82e-4,1.31353 0.184404,23.91988 0.258212,31.62481 l 0.01793,1.87192 -2.709953,-0.0123 c -1.490446,-0.007 -8.092839,-0.0301 -14.671957,-0.0519 z"
     id="path8563"
     inkscape:connector-curvature="0" />
  <path
     style="fill:#fffff4;fill-opacity:1;stroke:none;stroke-width:0.06087549"
     d="m 251.49324,155.74427 c 0.0214,-5.19801 0.0564,-13.06007 0.0777,-17.47127 l 0.0388,-8.02035 h 3.70495 3.70495 l 1.2e-4,4.00257 c 5e-5,2.20141 0.0182,4.92711 0.0403,6.05711 l 0.0402,2.05455 h 11.4043 11.4043 v 2.31326 2.31327 h -7.76162 -7.76163 v 2.29225 2.29224 l 7.76163,-0.0339 7.76162,-0.0339 v 2.27691 2.2769 l -5.34182,6e-5 c -2.938,4e-5 -6.43073,0.0182 -7.76162,0.0403 l -2.41983,0.0403 -10e-6,2.28815 -1e-5,2.28815 7.76163,-0.0193 7.76164,-0.0194 v 2.25652 2.25652 h -15.22729 -15.2273 z"
     id="path8565"
     inkscape:connector-curvature="0" />
  <path
     style="fill:#ffffff;fill-opacity:1;stroke:none;stroke-width:0.08609094"
     d="m 165.15368,307.08141 v -12.26795 h 11.35187 11.35188 l 0.0545,2.38902 c 0.03,1.31396 0.0798,6.79972 0.11075,12.19057 0.0478,8.33649 0.0382,9.81291 -0.0639,9.87761 -0.0661,0.0418 -1.07898,0.0767 -2.25089,0.0774 l -2.13075,9.9e-4 -0.0121,-1.05461 c -0.007,-0.58004 -0.0357,-2.52677 -0.0646,-4.32607 l -0.0524,-3.27146 -2.2032,-0.0229 -2.20321,-0.0229 -0.0567,1.56486 c -0.0312,0.86068 -0.0567,2.63799 -0.0567,3.94959 0,1.3116 -0.0246,2.56448 -0.0548,2.78416 l -0.0547,0.39942 h -2.22666 c -1.71974,0 -2.22845,-0.0245 -2.23453,-0.10761 -0.004,-0.0592 -0.0721,-2.00592 -0.15066,-4.32607 l -0.14279,-4.21846 -2.21684,-0.023 -2.21684,-0.023 v 4.34905 4.34904 h -2.23837 -2.23836 z"
     id="path8567"
     inkscape:connector-curvature="0" />
  <path
     style="fill:#fffff6;fill-opacity:1;stroke:none;stroke-width:0.08609094"
     d="m 92.807106,53.346219 c -1.60447,-0.20594 -3.18612,-0.721734 -5.12241,-1.670472 -3.58022,-1.754225 -6.56979,-4.327917 -8.61871,-7.419767 -1.89158,-2.854413 -3.00074,-6.150284 -2.84864,-8.464744 0.18787,-2.858924 1.88074,-6.638345 4.33819,-9.68523 3.82124,-4.737804 10.21529,-8.052577 14.53298,-7.534122 4.27178,0.512942 9.102344,3.318655 12.089844,7.022102 2.20129,2.728817 3.86283,6.385786 4.23125,9.312792 0.20825,1.654462 -0.027,3.937042 -0.57562,5.585373 -0.74745,2.245705 -1.95087,3.945114 -4.8473,6.845133 -2.30083,2.303682 -3.70637,3.343366 -5.990994,4.431557 -2.77337,1.320996 -5.14007,1.840314 -7.18859,1.577378 z m 6.10462,-12.724813 c 2.669304,-0.830778 3.586374,-4.184586 1.709204,-6.25067 -1.215874,-1.338236 -3.240974,-1.632535 -4.829144,-0.701802 -0.49981,0.292909 -1.19605,1.063804 -1.46971,1.6273 -1.01365,2.087245 0.0934,4.603167 2.3417,5.322052 0.65279,0.208721 1.58321,0.210013 2.24795,0.0031 z"
     id="path8569"
     inkscape:connector-curvature="0" />
  <path
     style="fill:#fffffe;fill-opacity:1;stroke:none;stroke-width:0.08609094"
     d="m 190.26205,52.263668 c -2.42071,-0.236779 -4.63097,-0.923619 -7.36078,-2.287366 -1.14108,-0.570057 -1.97949,-1.158626 -2.90969,-2.042614 -3.14055,-2.98452 -4.86561,-7.809885 -4.67945,-13.089452 0.0579,-1.642332 0.1977,-2.715729 0.54381,-4.175411 1.09646,-4.624332 3.58531,-8.194947 7.13142,-10.231057 1.52507,-0.875665 3.57476,-1.614824 5.46678,-1.971431 1.33694,-0.251985 4.00302,-0.268369 5.29459,-0.03254 5.27517,0.963203 9.87617,4.55753 12.35565,9.652297 0.92271,1.895964 1.42714,3.530106 1.67623,5.430307 0.41558,3.17022 -0.0946,6.192973 -1.51673,8.986821 -0.82178,1.614386 -1.54057,2.586217 -3.0021,4.058928 -2.78772,2.809045 -6.22401,4.850925 -9.16868,5.448123 -1.22386,0.248205 -2.81091,0.353175 -3.83105,0.253392 z m -1.47138,-10.953535 c 2.67114,-0.831352 3.58767,-4.183156 1.7092,-6.25067 -1.21588,-1.338235 -3.24097,-1.632535 -4.82914,-0.701801 -0.49981,0.292909 -1.19605,1.063803 -1.46971,1.627299 -1.01365,2.087246 0.0933,4.603167 2.3417,5.322053 0.65279,0.208721 1.5832,0.210012 2.24795,0.0031 z"
     id="path8571"
     inkscape:connector-curvature="0" />
  <path
     style="fill:#ffffe1;fill-opacity:1;stroke:none;stroke-width:0.08609094"
     d="m 93.842716,115.92038 c 0.01,-3.84902 0.50683,-48.555271 0.53995,-48.588396 0.0231,-0.02306 11.542404,0.0044 25.598534,0.0611 15.22644,0.06138 34.66514,0.0805 48.09091,0.04729 l 22.5343,-0.05573 V 92.136771 116.8889 h -48.3831 -48.383114 z m 52.383824,-10.56995 c 8.71847,-0.46903 17.42965,-2.04318 24.75114,-4.47264 4.44505,-1.474995 7.46778,-3.014235 6.78887,-3.457045 -0.0643,-0.0419 -0.1943,-0.0585 -0.289,-0.0369 -0.38251,0.0872 -8.75653,1.35505 -10.80442,1.63577 -10.64454,1.459145 -18.09799,1.894755 -29.01264,1.695585 -7.25113,-0.13231 -9.57225,-0.2639 -14.71359,-0.834155 -3.62505,-0.40207 -8.58581,-1.09145 -13.56729,-1.88539 -1.79935,-0.28678 -1.79985,-0.28682 -1.83253,-0.11964 -0.11509,0.58858 2.83874,2.408135 5.74967,3.541785 4.25319,1.65639 9.82257,2.86994 16.05596,3.49855 1.68556,0.16998 5.08907,0.41412 6.45682,0.46316 1.89461,0.0679 8.98183,0.0482 10.41701,-0.029 z M 133.40901,77.221507 c 0.5603,-0.291672 0.86746,-0.594948 1.11501,-1.10093 0.21062,-0.430473 0.22674,-0.536589 0.19235,-1.26589 -0.0571,-1.211334 -0.46846,-1.890679 -1.40348,-2.317877 -0.35515,-0.162266 -0.57352,-0.195923 -1.24831,-0.192399 -0.99545,0.0052 -1.52294,0.21309 -1.86952,0.736807 -0.61022,0.922106 -0.59385,2.840149 0.0313,3.667872 0.40406,0.534989 0.92833,0.712542 2.0104,0.680851 0.63533,-0.01861 0.89695,-0.06512 1.17225,-0.208434 z m 19.98456,-0.153453 c 0.70335,-0.292986 1.28038,-0.958867 1.57633,-1.819058 0.29907,-0.869248 0.14976,-1.653027 -0.42837,-2.248756 -0.54946,-0.566182 -1.03552,-0.749492 -1.98731,-0.749492 -0.68852,0 -0.88401,0.03256 -1.23612,0.205898 -0.55616,0.273783 -0.97763,0.709581 -1.23954,1.281655 -0.50446,1.101897 0.0543,2.678242 1.13485,3.201306 0.72327,0.350129 1.5334,0.397859 2.18016,0.128447 z"
     id="path8573"
     inkscape:connector-curvature="0" />
</svg>
